<?xml version="1.0" encoding="UTF-8"?><!DOCTYPE svg PUBLIC "-//W3C//DTD SVG 1.1//EN" "http://www.w3.org/Graphics/SVG/1.1/DTD/svg11.dtd"><svg xmlns="http://www.w3.org/2000/svg" xmlns:xlink="http://www.w3.org/1999/xlink"><defs><linearGradient id="paint0_linear" x1="9" y1="-13" x2="9" y2="31" gradientUnits="userSpaceOnUse"><stop stop-color="#BC9CFF"/><stop offset="1" stop-color="#8BA4F9"/></linearGradient><linearGradient id="paint0_linear" x1="7.828" y1="2.286" x2="2.171" y2="7.943" gradientUnits="userSpaceOnUse"><stop stop-color="#BC9CFF"/><stop offset="1" stop-color="#8BA4F9"/></linearGradient><linearGradient id="paint1_linear" x1="7.828" y1="2.286" x2="2.171" y2="7.943" gradientUnits="userSpaceOnUse"><stop stop-color="#BC9CFF"/><stop offset="1" stop-color="#8BA4F9"/></linearGradient><linearGradient id="paint0_linear" x1="11" y1="-1" x2="11" y2="23" gradientUnits="userSpaceOnUse"><stop stop-color="#BC9CFF"/><stop offset="1" stop-color="#8BA4F9"/></linearGradient><linearGradient id="paint0_linear" x1="20" y1="-4" x2="20" y2="44" gradientUnits="userSpaceOnUse"><stop stop-color="#BC9CFF"/><stop offset="1" stop-color="#8BA4F9"/></linearGradient><linearGradient id="paint0_linear" x1="11" y1="1" x2="11" y2="25" gradientUnits="userSpaceOnUse"><stop stop-color="#BC9CFF"/><stop offset="1" stop-color="#8BA4F9"/></linearGradient><linearGradient id="paint0_linear" x1="15.294" y1="15.294" x2="15.294" y2="27.059" gradientUnits="userSpaceOnUse"><stop stop-color="#BC9CFF"/><stop offset="1" stop-color="#8BA4F9"/></linearGradient><linearGradient id="paint1_linear" x1="26.029" y1="15.294" x2="26.029" y2="21.206" gradientUnits="userSpaceOnUse"><stop stop-color="#6FCF97"/><stop offset="1" stop-color="#66D2EA"/></linearGradient><linearGradient id="paint2_linear" x1="20" y1="0" x2="20" y2="40" gradientUnits="userSpaceOnUse"><stop stop-color="#BC9CFF"/><stop offset="1" stop-color="#8BA4F9"/></linearGradient><linearGradient id="paint0_linear" x1="15.294" y1="15.294" x2="15.294" y2="27.059" gradientUnits="userSpaceOnUse"><stop stop-color="#BC9CFF"/><stop offset="1" stop-color="#8BA4F9"/></linearGradient><linearGradient id="paint1_linear" x1="26.029" y1="15.294" x2="26.029" y2="21.206" gradientUnits="userSpaceOnUse"><stop stop-color="#6FCF97"/><stop offset="1" stop-color="#66D2EA"/></linearGradient><linearGradient id="paint2_linear" x1="20" y1="0" x2="20" y2="40" gradientUnits="userSpaceOnUse"><stop stop-color="#BC9CFF"/><stop offset="1" stop-color="#8BA4F9"/></linearGradient><linearGradient id="paint0_linear" x1="10" y1="-2" x2="10" y2="22" gradientUnits="userSpaceOnUse"><stop stop-color="#BC9CFF"/><stop offset="1" stop-color="#8BA4F9"/></linearGradient><linearGradient id="paint0_linear" x1="10" y1="-2" x2="10" y2="22" gradientUnits="userSpaceOnUse"><stop stop-color="#BC9CFF"/><stop offset="1" stop-color="#8BA4F9"/></linearGradient><linearGradient id="paint0_linear" x1="15.294" y1="15.294" x2="15.294" y2="27.059" gradientUnits="userSpaceOnUse"><stop stop-color="#BC9CFF"/><stop offset="1" stop-color="#8BA4F9"/></linearGradient><linearGradient id="paint1_linear" x1="26.029" y1="15.294" x2="26.029" y2="21.206" gradientUnits="userSpaceOnUse"><stop stop-color="#6FCF97"/><stop offset="1" stop-color="#66D2EA"/></linearGradient><linearGradient id="paint2_linear" x1="20" y1="0" x2="20" y2="40" gradientUnits="userSpaceOnUse"><stop stop-color="#BC9CFF"/><stop offset="1" stop-color="#8BA4F9"/></linearGradient><linearGradient id="paint0_linear" x1="12" y1="0" x2="12" y2="24" gradientUnits="userSpaceOnUse"><stop stop-color="#BC9CFF"/><stop offset="1" stop-color="#8BA4F9"/></linearGradient></defs><symbol id="arrow-forward" viewBox="0 0 18 18"><path d="M9 .984L17.016 9 9 17.016l-1.406-1.407 5.578-5.625H.984V8.016h12.188L7.594 2.39 9 .984z"/></symbol><symbol id="arrow-more" viewBox="0 0 12 8"><path d="M10.594.578L12 1.984l-6 6-6-6L1.406.578 6 5.172 10.594.578z" fill="#1F2041" fill-opacity=".5"/></symbol><symbol id="check-mark" viewBox="0 0 10 11"><path d="M1.464 4.408L5.707 8.65l-1.414 1.415L.05 5.822l1.414-1.414z" fill="url(#paint0_linear)"/><path d="M8.535 2.993L9.95 4.408l-5.657 5.657L2.879 8.65l5.656-5.657z" fill="url(#paint1_linear)"/></symbol><symbol id="favorite" viewBox="0 0 10 8"><path d="M4.93 7.887l-.605-.547A80.924 80.924 0 012.82 5.953c-.313-.3-.664-.67-1.055-1.113-.377-.443-.638-.84-.781-1.192A3.021 3.021 0 01.77 2.535c0-.638.215-1.178.645-1.62.442-.444.99-.665 1.64-.665.755 0 1.38.293 1.875.879C5.425.543 6.05.25 6.805.25c.651 0 1.192.221 1.621.664.443.443.664.983.664 1.621 0 .508-.169 1.035-.507 1.582a7.84 7.84 0 01-1.114 1.426c-.39.404-1.035 1.01-1.933 1.816l-.606.528z" fill="#BC9CFF"/></symbol><symbol id="favorite_border" viewBox="0 0 10 8"><path d="M5.04 6.734c.624-.56 1.086-.983 1.386-1.27.3-.286.625-.624.976-1.015.352-.39.593-.735.723-1.035.143-.3.215-.592.215-.879A1.37 1.37 0 007.91 1.5c-.273-.273-.618-.41-1.035-.41a1.68 1.68 0 00-.918.273 1.415 1.415 0 00-.566.703h-.782c-.104-.286-.3-.52-.586-.703a1.586 1.586 0 00-.898-.273 1.47 1.47 0 00-1.055.41c-.273.273-.41.618-.41 1.035 0 .287.065.58.195.88.144.299.391.644.743 1.034.351.39.677.73.976 1.016.3.286.762.71 1.387 1.27L5 6.772l.04-.039zM6.874.25c.651 0 1.191.221 1.621.664.443.443.664.983.664 1.621 0 .378-.071.749-.215 1.113-.143.352-.41.75-.8 1.192-.378.443-.723.814-1.036 1.113-.312.3-.813.762-1.504 1.387L5 7.887l-.605-.528A55.478 55.478 0 012.44 5.543a8.39 8.39 0 01-1.093-1.426C1.009 3.57.84 3.043.84 2.535c0-.638.215-1.178.644-1.62C1.927.47 2.474.25 3.125.25c.755 0 1.38.293 1.875.879C5.495.543 6.12.25 6.875.25z" fill="#1F2041" fill-opacity=".25"/></symbol><symbol id="fb-icon" viewBox="0 0 22 22"><path d="M21.5 2.75v16.5a2.17 2.17 0 01-.656 1.594 2.17 2.17 0 01-1.594.656h-3.984v-8.297h2.812l.422-3.187h-3.234V8c0-.5.093-.875.28-1.125.25-.281.673-.422 1.267-.422H18.5V3.641c-.656-.094-1.469-.141-2.438-.141-1.25 0-2.25.375-3 1.125-.718.719-1.078 1.734-1.078 3.047v2.344H9.125v3.187h2.86V21.5H2.75a2.17 2.17 0 01-1.594-.656A2.17 2.17 0 01.5 19.25V2.75c0-.625.219-1.156.656-1.594A2.17 2.17 0 012.75.5h16.5a2.17 2.17 0 011.594.656c.437.438.656.969.656 1.594z" fill="url(#paint0_linear)"/></symbol><symbol id="insert_emoticon" viewBox="0 0 40 40"><path d="M26.188 29.094c-1.813 1.25-3.875 1.875-6.188 1.875-2.313 0-4.406-.625-6.281-1.875-1.813-1.313-3.125-3-3.938-5.063H30.22c-.813 2.063-2.157 3.75-4.032 5.063zM15.03 17.187c-.562.563-1.25.844-2.062.844-.813 0-1.531-.281-2.156-.843-.563-.625-.844-1.344-.844-2.157 0-.812.281-1.5.844-2.062.624-.625 1.343-.938 2.156-.938.812 0 1.5.313 2.062.938.625.562.938 1.25.938 2.062 0 .813-.313 1.531-.938 2.156zm14.063 0c-.563.563-1.25.844-2.063.844-.812 0-1.531-.281-2.156-.843-.563-.625-.844-1.344-.844-2.157 0-.812.282-1.5.844-2.062.625-.625 1.344-.938 2.156-.938.813 0 1.5.313 2.063.938.625.562.937 1.25.937 2.062 0 .813-.312 1.531-.937 2.156zM8.656 31.345C11.844 34.469 15.625 36.03 20 36.03c4.375 0 8.125-1.562 11.25-4.687 3.188-3.188 4.781-6.969 4.781-11.344 0-4.375-1.593-8.125-4.781-11.25C28.125 5.562 24.375 3.969 20 3.969S11.844 5.563 8.656 8.75C5.531 11.875 3.97 15.625 3.97 20s1.562 8.156 4.687 11.344zM5.844 5.937C9.78 2 14.5.032 20 .032S30.188 2 34.063 5.938C38 9.813 39.968 14.5 39.968 20S38 30.219 34.062 34.156C30.189 38.031 25.5 39.97 20 39.97S9.781 38.03 5.844 34.156C1.969 30.22.03 25.5.03 20S1.97 9.812 5.844 5.937z" fill="url(#paint0_linear)"/></symbol><symbol id="insta-icon" viewBox="0 0 22 22"><path d="M7.203 7.203C8.266 6.141 9.547 5.61 11.047 5.61s2.765.532 3.797 1.594C15.906 8.234 16.438 9.5 16.438 11s-.532 2.781-1.594 3.844c-1.031 1.031-2.297 1.547-3.797 1.547s-2.781-.516-3.844-1.547C6.172 13.78 5.656 12.5 5.656 11s.516-2.766 1.547-3.797zm1.36 6.281a3.386 3.386 0 002.484 1.032c.969 0 1.797-.344 2.484-1.032A3.386 3.386 0 0014.562 11c0-.969-.343-1.797-1.03-2.484a3.386 3.386 0 00-2.485-1.032c-.969 0-1.797.344-2.485 1.032A3.386 3.386 0 007.532 11c0 .969.343 1.797 1.03 2.484zm8.953-8.953c.25.219.375.5.375.844s-.125.64-.375.89c-.22.25-.5.376-.844.376s-.64-.125-.89-.375a1.217 1.217 0 01-.376-.891c0-.344.125-.625.375-.844.25-.25.547-.375.89-.375.345 0 .626.125.845.375zM21.5 6.688c.031.843.047 2.28.047 4.312 0 2.031-.016 3.469-.047 4.313-.094 1.906-.672 3.39-1.734 4.453-1.032 1.03-2.5 1.578-4.407 1.64-.843.063-2.28.094-4.312.094-2.031 0-3.469-.031-4.313-.094-1.906-.093-3.375-.656-4.406-1.687a4.524 4.524 0 01-.984-1.313c-.25-.5-.438-.984-.563-1.453a8.448 8.448 0 01-.14-1.64C.578 14.469.547 13.03.547 11c0-2.031.031-3.484.094-4.36.093-1.874.656-3.327 1.687-4.359C3.36 1.22 4.828.641 6.734.547 7.578.516 9.016.5 11.047.5c2.031 0 3.469.016 4.312.047 1.907.094 3.375.672 4.407 1.734 1.062 1.031 1.64 2.5 1.734 4.406zm-2.25 10.5c.094-.25.172-.563.234-.938.063-.406.11-.875.141-1.406.031-.563.047-1.016.047-1.36v-1.453V11 9.969 8.516c0-.344-.016-.782-.047-1.313a13.252 13.252 0 00-.14-1.406 5.075 5.075 0 00-.235-.984c-.375-.97-1.047-1.641-2.016-2.016a5.08 5.08 0 00-.984-.235c-.375-.062-.844-.109-1.406-.14a23.159 23.159 0 00-1.313-.047H8.562c-.343 0-.796.016-1.359.047-.531.031-1 .078-1.406.14-.375.063-.688.141-.938.235-.968.375-1.64 1.047-2.015 2.015a5.08 5.08 0 00-.235.985c-.062.375-.109.844-.14 1.406-.031.531-.047.969-.047 1.313v5.625c.031.468.062.875.094 1.218a12.434 12.434 0 00.328 1.829c.406.968 1.078 1.64 2.015 2.015.25.094.563.172.938.235.406.062.875.109 1.406.14.563.031 1 .047 1.313.047H13.53c.344 0 .781-.016 1.313-.047a13.254 13.254 0 001.406-.14c.406-.063.734-.141.984-.235.97-.406 1.641-1.078 2.016-2.015z" fill="url(#paint0_linear)"/></symbol><symbol id="logo-toxin" viewBox="0 0 106 40"><path d="M62.335 13.368c.222 0 .402.076.542.228.152.14.228.32.228.542a.74.74 0 01-.227.543.705.705 0 01-.543.227h-3.763v10.5a.76.76 0 01-.227.56c-.14.14-.32.21-.542.21-.21 0-.391-.07-.543-.21a.76.76 0 01-.227-.56v-10.5H53.27a.74.74 0 01-.543-.227.74.74 0 01-.227-.543c0-.221.076-.402.227-.542a.74.74 0 01.543-.228h9.065zM68.908 13.368c.886 0 1.72.17 2.502.508.793.338 1.482.799 2.065 1.382a6.344 6.344 0 011.4 2.065c.338.782.508 1.616.508 2.503a6.258 6.258 0 01-.665 2.87 6.498 6.498 0 01-1.803 2.205l-.035.035c-.56.42-1.172.752-1.837.997a6.401 6.401 0 01-2.135.35 6.23 6.23 0 01-2.503-.507 6.751 6.751 0 01-2.065-1.383 6.536 6.536 0 01-1.382-2.047 6.275 6.275 0 01-.508-2.52c0-.98.198-1.884.595-2.713.397-.84.94-1.557 1.628-2.152l.07-.07c.011 0 .029-.012.052-.035a6.336 6.336 0 011.89-1.085c.7-.269 1.44-.403 2.223-.403zm0 11.375c.443 0 .863-.052 1.26-.157a5.575 5.575 0 001.155-.473l-6.143-7.472a4.916 4.916 0 00-.875 1.47 4.664 4.664 0 00-.315 1.715c0 .677.128 1.312.385 1.907s.607 1.12 1.05 1.575c.455.444.98.794 1.575 1.05.595.257 1.23.385 1.908.385zm3.622-1.592c.408-.444.724-.945.945-1.505.234-.572.35-1.178.35-1.82a4.814 4.814 0 00-1.453-3.465 4.813 4.813 0 00-3.464-1.453c-.467 0-.916.065-1.348.193a4.462 4.462 0 00-1.207.525l6.177 7.525zM82.351 20.63a.762.762 0 01-.595-.28l-4.498-5.774a.714.714 0 01-.157-.543.722.722 0 01.28-.507.658.658 0 01.543-.14c.21.023.379.117.507.28l3.92 5.005 3.832-4.918a.71.71 0 01.49-.28c.21-.023.397.03.56.158a.721.721 0 01.28.507.713.713 0 01-.157.543l-4.41 5.67a.73.73 0 01-.595.28zm4.918 5.636a1.566 1.566 0 01-.56-.105 3.847 3.847 0 01-.42-.228 2.376 2.376 0 01-.42-.42l-3.518-4.532-3.832 4.935a.721.721 0 01-.508.28.713.713 0 01-.542-.158.709.709 0 01-.28-.49.741.741 0 01.157-.56l4.41-5.67a.682.682 0 01.578-.28c.256 0 .46.094.612.28l4.095 5.25c.058.082.11.134.157.158l.106.052c.198 0 .361.07.49.21.14.129.215.292.227.49a.657.657 0 01-.175.543.744.744 0 01-.525.245h-.052zM91.734 26.266a.761.761 0 01-.56-.228.76.76 0 01-.227-.56V14.103c0-.21.076-.39.227-.542a.761.761 0 01.56-.228c.21 0 .391.076.543.228a.74.74 0 01.227.542v11.375a.76.76 0 01-.227.56.74.74 0 01-.543.228zM104.938 26.23a.685.685 0 01-.595-.297l-7.298-9.59v9.135a.74.74 0 01-.227.543.712.712 0 01-.525.21.75.75 0 01-.753-.753V14.121c0-.164.047-.31.14-.438a.697.697 0 01.385-.262.679.679 0 01.455-.018.79.79 0 01.385.263l7.28 9.607v-9.152a.743.743 0 01.753-.752c.21 0 .385.075.525.227a.723.723 0 01.227.525v11.357c0 .164-.047.31-.14.438a.798.798 0 01-.367.28 1.481 1.481 0 01-.245.035z" fill="#1F2041"/><path d="M20 27.059a1.18 1.18 0 01-1.177-1.177c0-4.529-3.706-8.235-8.235-8.235a1.18 1.18 0 01-1.176-1.176c0-.647.529-1.177 1.176-1.177a10.582 10.582 0 0110.588 10.588A1.18 1.18 0 0120 27.06z" fill="url(#paint0_linear)"/><path d="M30.588 16.47a1.18 1.18 0 01-1.176 1.177 8.21 8.21 0 00-6.765 3.559 12.037 12.037 0 00-1.176-2.294 10.49 10.49 0 017.94-3.618c.648 0 1.177.53 1.177 1.177z" fill="url(#paint1_linear)"/><path d="M20 40C8.97 40 0 31.03 0 20S8.97 0 20 0s20 8.97 20 20-8.97 20-20 20zm0-37.647C10.265 2.353 2.353 10.265 2.353 20S10.265 37.647 20 37.647 37.647 29.735 37.647 20 29.735 2.353 20 2.353z" fill="url(#paint2_linear)"/></symbol><symbol id="logo_sign" viewBox="0 0 40 40"><path d="M20 27.059a1.18 1.18 0 01-1.177-1.177c0-4.529-3.706-8.235-8.235-8.235a1.18 1.18 0 01-1.176-1.176c0-.647.529-1.177 1.176-1.177a10.582 10.582 0 0110.588 10.588A1.18 1.18 0 0120 27.06z" fill="url(#paint0_linear)"/><path d="M30.588 16.47a1.18 1.18 0 01-1.176 1.177 8.21 8.21 0 00-6.765 3.559 12.037 12.037 0 00-1.176-2.294 10.49 10.49 0 017.94-3.618c.648 0 1.177.53 1.177 1.177z" fill="url(#paint1_linear)"/><path d="M20 40C8.97 40 0 31.03 0 20S8.97 0 20 0s20 8.97 20 20-8.97 20-20 20zm0-37.647C10.265 2.353 2.353 10.265 2.353 20S10.265 37.647 20 37.647 37.647 29.735 37.647 20 29.735 2.353 20 2.353z" fill="url(#paint2_linear)"/></symbol><symbol id="star" viewBox="0 0 20 19"><path d="M10 15.25L3.812 19l1.641-7.031L.016 7.234l7.171-.609L10 .015l2.813 6.61 7.171.61-5.437 4.734L16.187 19 10 15.25z" fill="url(#paint0_linear)"/></symbol><symbol id="star_border" viewBox="0 0 20 19"><path d="M10 13.422l3.75 2.25-.984-4.266L16.094 8.5l-4.407-.375L10 4.094 8.312 8.125 3.907 8.5l3.328 2.906-.984 4.266 3.75-2.25zm9.984-6.188l-5.437 4.735L16.187 19 10 15.25 3.812 19l1.641-7.031L.016 7.234l7.171-.609L10 .015l2.813 6.61 7.171.61z" fill="url(#paint0_linear)"/></symbol><symbol id="toxin_icon" viewBox="0 0 106 40"><path d="M62.335 13.368c.222 0 .402.076.542.228.152.14.228.32.228.542a.74.74 0 01-.227.543.705.705 0 01-.543.227h-3.763v10.5a.76.76 0 01-.227.56c-.14.14-.32.21-.542.21-.21 0-.391-.07-.543-.21a.76.76 0 01-.227-.56v-10.5H53.27a.74.74 0 01-.543-.227.74.74 0 01-.227-.543c0-.221.076-.402.227-.542a.74.74 0 01.543-.228h9.065zM68.908 13.368c.886 0 1.72.17 2.502.508.793.338 1.482.799 2.065 1.382a6.344 6.344 0 011.4 2.065c.338.782.508 1.616.508 2.503a6.258 6.258 0 01-.665 2.87 6.498 6.498 0 01-1.803 2.205l-.035.035c-.56.42-1.172.752-1.837.997a6.401 6.401 0 01-2.135.35 6.23 6.23 0 01-2.503-.507 6.751 6.751 0 01-2.065-1.383 6.536 6.536 0 01-1.382-2.047 6.275 6.275 0 01-.508-2.52c0-.98.198-1.884.595-2.713.397-.84.94-1.557 1.628-2.152l.07-.07c.011 0 .029-.012.052-.035a6.336 6.336 0 011.89-1.085c.7-.269 1.44-.403 2.223-.403zm0 11.375c.443 0 .863-.052 1.26-.157a5.575 5.575 0 001.155-.473l-6.143-7.472a4.916 4.916 0 00-.875 1.47 4.664 4.664 0 00-.315 1.715c0 .677.128 1.312.385 1.907s.607 1.12 1.05 1.575c.455.444.98.794 1.575 1.05.595.257 1.23.385 1.908.385zm3.622-1.592c.408-.444.724-.945.945-1.505.234-.572.35-1.178.35-1.82a4.814 4.814 0 00-1.453-3.465 4.813 4.813 0 00-3.464-1.453c-.467 0-.916.065-1.348.193a4.462 4.462 0 00-1.207.525l6.177 7.525zM82.351 20.63a.762.762 0 01-.595-.28l-4.498-5.774a.714.714 0 01-.157-.543.722.722 0 01.28-.507.658.658 0 01.543-.14c.21.023.379.117.507.28l3.92 5.005 3.832-4.918a.71.71 0 01.49-.28c.21-.023.397.03.56.158a.721.721 0 01.28.507.713.713 0 01-.157.543l-4.41 5.67a.73.73 0 01-.595.28zm4.918 5.636a1.566 1.566 0 01-.56-.105 3.847 3.847 0 01-.42-.228 2.376 2.376 0 01-.42-.42l-3.518-4.532-3.832 4.935a.721.721 0 01-.508.28.713.713 0 01-.542-.158.709.709 0 01-.28-.49.741.741 0 01.157-.56l4.41-5.67a.682.682 0 01.578-.28c.256 0 .46.094.612.28l4.095 5.25c.058.082.11.134.157.158l.106.052c.198 0 .361.07.49.21.14.129.215.292.227.49a.657.657 0 01-.175.543.744.744 0 01-.525.245h-.052zM91.734 26.266a.761.761 0 01-.56-.228.76.76 0 01-.227-.56V14.103c0-.21.076-.39.227-.542a.761.761 0 01.56-.228c.21 0 .391.076.543.228a.74.74 0 01.227.542v11.375a.76.76 0 01-.227.56.74.74 0 01-.543.228zM104.938 26.23a.685.685 0 01-.595-.297l-7.298-9.59v9.135a.74.74 0 01-.227.543.712.712 0 01-.525.21.75.75 0 01-.753-.753V14.121c0-.164.047-.31.14-.438a.697.697 0 01.385-.262.679.679 0 01.455-.018.79.79 0 01.385.263l7.28 9.607v-9.152a.743.743 0 01.753-.752c.21 0 .385.075.525.227a.723.723 0 01.227.525v11.357c0 .164-.047.31-.14.438a.798.798 0 01-.367.28 1.481 1.481 0 01-.245.035z" fill="#1F2041"/><path d="M20 27.059a1.18 1.18 0 01-1.177-1.177c0-4.529-3.706-8.235-8.235-8.235a1.18 1.18 0 01-1.176-1.176c0-.647.529-1.177 1.176-1.177a10.582 10.582 0 0110.588 10.588A1.18 1.18 0 0120 27.06z" fill="url(#paint0_linear)"/><path d="M30.588 16.47a1.18 1.18 0 01-1.176 1.177 8.21 8.21 0 00-6.765 3.559 12.037 12.037 0 00-1.176-2.294 10.49 10.49 0 017.94-3.618c.648 0 1.177.53 1.177 1.177z" fill="url(#paint1_linear)"/><path d="M20 40C8.97 40 0 31.03 0 20S8.97 0 20 0s20 8.97 20 20-8.97 20-20 20zm0-37.647C10.265 2.353 2.353 10.265 2.353 20S10.265 37.647 20 37.647 37.647 29.735 37.647 20 29.735 2.353 20 2.353z" fill="url(#paint2_linear)"/></symbol><symbol id="twitter-icon" viewBox="0 0 24 20"><path d="M21.516 5.125c.03.125.047.328.047.61 0 1.656-.313 3.312-.938 4.968a15.729 15.729 0 01-2.672 4.5c-1.125 1.344-2.594 2.438-4.406 3.281-1.813.844-3.813 1.266-6 1.266-2.75 0-5.266-.734-7.547-2.203.344.031.734.047 1.172.047 2.281 0 4.328-.703 6.14-2.11-1.093 0-2.062-.312-2.906-.937a5.085 5.085 0 01-1.687-2.438c.312.032.61.047.89.047.438 0 .875-.047 1.313-.14a4.78 4.78 0 01-2.016-.938A5.211 5.211 0 011.5 9.391a4.86 4.86 0 01-.516-2.204v-.093a4.634 4.634 0 002.204.656C1.718 6.75.983 5.375.983 3.625c0-.875.235-1.703.704-2.484A13.646 13.646 0 006.14 4.797a13.794 13.794 0 005.671 1.5 6.832 6.832 0 01-.093-1.125c0-1.344.469-2.5 1.406-3.469C14.094.734 15.25.25 16.594.25c1.437 0 2.64.516 3.61 1.547a10.015 10.015 0 003.14-1.172c-.375 1.156-1.094 2.063-2.157 2.719.938-.125 1.875-.39 2.813-.797-.688 1-1.516 1.86-2.484 2.578z" fill="url(#paint0_linear)"/></symbol></svg>